<?xml version="1.0" encoding="UTF-8" standalone="no"?><!DOCTYPE svg PUBLIC "-//W3C//DTD SVG 1.1//EN" "http://www.w3.org/Graphics/SVG/1.1/DTD/svg11.dtd"><svg width="100%" height="100%" viewBox="0 0 795 69" version="1.1" xmlns="http://www.w3.org/2000/svg" xmlns:xlink="http://www.w3.org/1999/xlink" xml:space="preserve" xmlns:serif="http://www.serif.com/" style="fill-rule:evenodd;clip-rule:evenodd;stroke-miterlimit:10;"><path d="M32.534,19.531l-6.251,0l0,-7.595l-8.158,0l0,7.595l-6.252,0l0,-19.376l6.252,0l0,7.285l8.158,0l0,-7.285l6.251,0l0,19.376Z" style="fill:#11477b;fill-rule:nonzero;"/><path d="M46.032,4.031l-0.062,0l-2.844,8.395l5.814,0l-2.908,-8.395Zm-4.25,12.167l-1.157,3.333l-6.501,0l7.033,-19.376l9.501,0l7.127,19.376l-6.377,0l-1.218,-3.333l-8.408,0Z" style="fill:#11477b;fill-rule:nonzero;"/><path d="M70.286,9.895c2.688,0 2.594,-0.827 2.594,-3.023c0,-1.73 -0.532,-2.222 -2.594,-2.222l-4.845,0l0,5.245l4.845,0Zm-11.097,-9.74l12.066,0c5.407,0.078 8.063,1.034 8.063,5.865c0,3.229 0,5.115 -4.437,5.967l0,0.208c2.562,0.076 4.219,1.24 4.219,3.436l0,3.9l-6.251,0l0,-2.713c0.062,-1.446 -0.688,-2.427 -2.563,-2.427l-4.845,0l0,5.14l-6.252,0l0,-19.376Z" style="fill:#11477b;fill-rule:nonzero;"/><path d="M88.723,15.295l4.72,0c2.032,0 2.875,-0.388 2.875,-1.963c0,-1.602 -0.719,-1.834 -2.75,-1.834l-4.845,0l0,3.797Zm0,-7.388l4.501,0c2.188,0 2.719,-0.311 2.719,-1.861c0,-1.162 -0.219,-1.602 -1.969,-1.653l-5.251,0l0,3.514Zm-6.25,-7.752l12.314,0c4.658,0 7.408,0.724 7.408,4.961c0,2.454 -0.594,4.056 -3.689,4.47l0,0.206c3.47,0.182 4.064,1.912 4.064,4.341c0,4.753 -2.688,5.399 -7.659,5.399l-12.438,0l0,-19.377Z" style="fill:#11477b;fill-rule:nonzero;"/><path d="M119.945,12.013l0,-4.366c0,-2.867 -1.157,-3.152 -4.407,-3.152c-3.251,0 -4.314,0.285 -4.407,3.152l0,4.366c0.093,2.894 1.156,3.177 4.407,3.177c3.25,0 4.407,-0.283 4.407,-3.177m-15.253,0.569l0,-5.477c0,-5.969 4.5,-7.105 10.846,-7.105c6.344,0 10.845,1.136 10.845,7.105l0,5.477c0,5.968 -4.501,7.104 -10.845,7.104c-6.346,0 -10.846,-1.136 -10.846,-7.104" style="fill:#11477b;fill-rule:nonzero;"/><path d="M140.291,9.895c2.687,0 2.594,-0.827 2.594,-3.023c0,-1.73 -0.532,-2.222 -2.594,-2.222l-4.845,0l0,5.245l4.845,0Zm-11.097,-9.74l12.066,0c5.407,0.078 8.063,1.034 8.063,5.865c0,3.229 0,5.115 -4.437,5.967l0,0.208c2.562,0.076 4.219,1.24 4.219,3.436l0,3.9l-6.251,0l0,-2.713c0.062,-1.446 -0.688,-2.427 -2.563,-2.427l-4.845,0l0,5.14l-6.252,0l0,-19.376Z" style="fill:#11477b;fill-rule:nonzero;"/><path d="M166.853,15.295l4.72,0c2.032,0 2.875,-0.388 2.875,-1.963c0,-1.602 -0.718,-1.834 -2.75,-1.834l-4.845,0l0,3.797Zm0,-7.388l4.501,0c2.188,0 2.719,-0.311 2.719,-1.861c0,-1.162 -0.219,-1.602 -1.969,-1.653l-5.251,0l0,3.514Zm-6.25,-7.752l12.314,0c4.658,0 7.408,0.724 7.408,4.961c0,2.454 -0.594,4.056 -3.689,4.47l0,0.206c3.47,0.182 4.064,1.912 4.064,4.341c0,4.753 -2.688,5.399 -7.659,5.399l-12.438,0l0,-19.377Z" style="fill:#11477b;fill-rule:nonzero;"/><path d="M194.044,9.895c2.688,0 2.595,-0.827 2.595,-3.023c0,-1.73 -0.532,-2.222 -2.595,-2.222l-4.845,0l0,5.245l4.845,0Zm-11.096,-9.74l12.065,0c5.408,0.078 8.063,1.034 8.063,5.865c0,3.229 0,5.115 -4.437,5.967l0,0.208c2.563,0.076 4.219,1.24 4.219,3.436l0,3.9l-6.251,0l0,-2.713c0.062,-1.446 -0.688,-2.427 -2.563,-2.427l-4.845,0l0,5.14l-6.251,0l0,-19.376Z" style="fill:#11477b;fill-rule:nonzero;"/><path d="M215.889,4.031l-0.062,0l-2.844,8.395l5.813,0l-2.907,-8.395Zm-4.25,12.167l-1.158,3.333l-6.5,0l7.032,-19.376l9.502,0l7.127,19.376l-6.377,0l-1.219,-3.333l-8.407,0Z" style="fill:#11477b;fill-rule:nonzero;"/><path d="M234.796,19.531l-6.252,0l0,-19.376l10.565,0l6.72,14.88l0.251,0l-0.375,-14.88l6.25,0l0,19.376l-10.657,0l-6.627,-14.881l-0.25,0l0.375,14.881Z" style="fill:#11477b;fill-rule:nonzero;"/><path d="M274.957,12.195l0,0.568c0,2.118 -0.03,4.03 -2.156,5.503c-2.125,1.446 -4.719,1.421 -7.44,1.421c-6.376,0 -11.032,-0.259 -11.032,-7.337l0,-5.012c0,-6.408 4.157,-7.338 11.032,-7.338c6.44,0 9.441,0.543 9.566,6.356l0,0.749l-6.439,0l0,-0.749c-0.218,-1.731 -1.688,-1.86 -3.813,-1.86c-3.564,0 -3.907,0.904 -3.907,3.669l0,3.021c0,2.894 0.156,4.005 3.907,4.005c2.594,0 3.845,-0.155 3.845,-2.428l0,-0.568l6.437,0Z" style="fill:#11477b;fill-rule:nonzero;"/><path d="M298.022,19.531l-6.251,0l0,-7.595l-8.158,0l0,7.595l-6.251,0l0,-19.376l6.251,0l0,7.285l8.158,0l0,-7.285l6.251,0l0,19.376Z" style="fill:#11477b;fill-rule:nonzero;"/><path d="M327.523,12.013l0,-4.366c0,-2.867 -1.157,-3.152 -4.407,-3.152c-3.251,0 -4.314,0.285 -4.407,3.152l0,4.366c0.093,2.894 1.156,3.177 4.407,3.177c3.25,0 4.407,-0.283 4.407,-3.177m-15.253,0.569l0,-5.477c0,-5.969 4.5,-7.105 10.846,-7.105c6.344,0 10.845,1.136 10.845,7.105l0,5.477c0,5.968 -4.501,7.104 -10.845,7.104c-6.346,0 -10.846,-1.136 -10.846,-7.104" style="fill:#11477b;fill-rule:nonzero;"/><path d="M356.713,12.195l0,0.568c0,2.118 -0.03,4.03 -2.156,5.503c-2.125,1.446 -4.72,1.421 -7.44,1.421c-6.376,0 -11.032,-0.259 -11.032,-7.337l0,-5.012c0,-6.408 4.156,-7.338 11.032,-7.338c6.44,0 9.44,0.543 9.566,6.356l0,0.749l-6.44,0l0,-0.749c-0.218,-1.731 -1.688,-1.86 -3.813,-1.86c-3.563,0 -3.907,0.904 -3.907,3.669l0,3.021c0,2.894 0.157,4.005 3.907,4.005c2.595,0 3.846,-0.155 3.846,-2.428l0,-0.568l6.437,0Z" style="fill:#11477b;fill-rule:nonzero;"/><path d="M365.994,7.932l10.002,0l0,3.591l-10.002,0l0,3.772l10.876,0l0,4.237l-17.128,0l0,-19.377l16.909,0l0,4.237l-10.657,0l0,3.54Z" style="fill:#11477b;fill-rule:nonzero;"/><path d="M390.464,4.031l-0.062,0l-2.844,8.395l5.813,0l-2.907,-8.395Zm-4.25,12.167l-1.157,3.333l-6.501,0l7.033,-19.376l9.501,0l7.126,19.376l-6.376,0l-1.218,-3.333l-8.408,0Z" style="fill:#11477b;fill-rule:nonzero;"/><path d="M409.997,19.531l-6.25,0l0,-19.376l10.563,0l6.721,14.88l0.249,0l-0.375,-14.88l6.253,0l0,19.376l-10.659,0l-6.627,-14.881l-0.25,0l0.375,14.881Z" style="fill:#11477b;fill-rule:nonzero;"/><path d="M445.345,12.013l0,-4.366c0,-2.867 -1.157,-3.152 -4.408,-3.152c-3.251,0 -4.313,0.285 -4.406,3.152l0,4.366c0.093,2.894 1.155,3.177 4.406,3.177c3.251,0 4.408,-0.283 4.408,-3.177m-15.253,0.569l0,-5.477c0,-5.969 4.501,-7.105 10.845,-7.105c6.345,0 10.847,1.136 10.847,7.105l0,5.477c0,5.968 -4.502,7.104 -10.847,7.104c-6.344,0 -10.845,-1.136 -10.845,-7.104" style="fill:#11477b;fill-rule:nonzero;"/><path d="M468.971,6.175c-0.126,-1.963 -2.157,-1.937 -4.031,-1.937c-4.502,0 -4.628,1.136 -4.691,4.262l0,3.152c0,3.437 1.44,3.797 4.691,3.797c3.187,0 4.031,-0.593 4.031,-3.28l-4.313,0l0,-3.592l10.659,0l0,3.385c0,6.536 -2.001,7.725 -10.377,7.725c-7.378,0 -11.127,-1.033 -11.127,-7.312l0,-5.011c0,-6.408 4.25,-7.364 11.127,-7.364c6.063,0 10.377,0.026 10.377,6.175l-6.346,0Z" style="fill:#11477b;fill-rule:nonzero;"/><path d="M489.38,9.895c2.688,0 2.594,-0.827 2.594,-3.023c0,-1.73 -0.531,-2.222 -2.594,-2.222l-4.847,0l0,5.245l4.847,0Zm-11.097,-9.74l12.066,0c5.407,0.078 8.064,1.034 8.064,5.865c0,3.229 0,5.115 -4.438,5.967l0,0.208c2.561,0.076 4.219,1.24 4.219,3.436l0,3.9l-6.252,0l0,-2.713c0.062,-1.446 -0.687,-2.427 -2.562,-2.427l-4.847,0l0,5.14l-6.25,0l0,-19.376Z" style="fill:#11477b;fill-rule:nonzero;"/><path d="M511.224,4.031l-0.062,0l-2.846,8.395l5.814,0l-2.906,-8.395Zm-4.252,12.167l-1.155,3.333l-6.502,0l7.033,-19.376l9.501,0l7.126,19.376l-6.376,0l-1.218,-3.333l-8.409,0Z" style="fill:#11477b;fill-rule:nonzero;"/><path d="M534.945,10.076c2.469,-0.077 2.813,-0.31 2.813,-2.816c0,-1.99 -0.375,-2.609 -2.813,-2.609l-4.282,0l0,5.425l4.282,0Zm-10.535,9.456l0,-19.377l11.786,0c5.812,0 8.002,2.041 8.002,7.105c0,5.451 -1.47,7.312 -8.002,7.312l-5.533,0l0,4.96l-6.253,0Z" style="fill:#11477b;fill-rule:nonzero;"/><path d="M567.48,19.531l-6.252,0l0,-7.595l-8.158,0l0,7.595l-6.25,0l0,-19.376l6.25,0l0,7.285l8.158,0l0,-7.285l6.252,0l0,19.376Z" style="fill:#11477b;fill-rule:nonzero;"/><rect x="571.383" y="0.155" width="6.253" height="19.376" style="fill:#11477b;"/><path d="M601.294,12.195l0,0.568c0,2.118 -0.03,4.03 -2.156,5.503c-2.127,1.446 -4.721,1.421 -7.439,1.421c-6.376,0 -11.034,-0.259 -11.034,-7.337l0,-5.012c0,-6.408 4.157,-7.338 11.034,-7.338c6.44,0 9.439,0.543 9.565,6.356l0,0.749l-6.44,0l0,-0.749c-0.218,-1.731 -1.688,-1.86 -3.814,-1.86c-3.563,0 -3.905,0.904 -3.905,3.669l0,3.021c0,2.894 0.156,4.005 3.905,4.005c2.595,0 3.845,-0.155 3.845,-2.428l0,-0.568l6.439,0Z" style="fill:#11477b;fill-rule:nonzero;"/><rect x="615.511" y="0.155" width="6.253" height="19.376" style="fill:#11477b;"/><path d="M631.857,19.531l-6.25,0l0,-19.376l10.563,0l6.721,14.88l0.249,0l-0.375,-14.88l6.253,0l0,19.376l-10.659,0l-6.628,-14.881l-0.249,0l0.375,14.881Z" style="fill:#11477b;fill-rule:nonzero;"/><path d="M663.517,7.75c6.939,0.415 8.658,1.138 8.658,5.581c0,3.203 0.156,6.356 -10.158,6.356c-5.971,0 -9.939,-0.104 -9.939,-6.459l6.002,0c0,2.015 0.873,2.221 3.937,2.221c2.937,0 3.905,-0.155 3.905,-1.782c0,-1.68 -0.342,-1.654 -3.281,-1.809l-1.374,-0.077c-5.782,-0.336 -9.159,-0.309 -9.159,-5.865c0,-5.554 3.782,-5.916 9.909,-5.916c5.126,0 9.501,0.078 9.501,5.426l0,0.8l-6.001,0c0,-1.989 -0.999,-1.989 -3.5,-1.989c-3.377,0 -3.658,0.569 -3.658,1.654c0,1.549 0.908,1.602 2.563,1.704l2.595,0.155Z" style="fill:#11477b;fill-rule:nonzero;"/><path d="M685.582,19.531l-6.252,0l0,-14.881l-6.002,0l0,-4.495l18.567,0l0,4.495l-6.313,0l0,14.881Z" style="fill:#11477b;fill-rule:nonzero;"/><rect x="693.828" y="0.155" width="6.252" height="19.376" style="fill:#11477b;"/><path d="M714.3,19.531l-6.253,0l0,-14.881l-6.001,0l0,-4.495l18.567,0l0,4.495l-6.313,0l0,14.881Z" style="fill:#11477b;fill-rule:nonzero;"/><path d="M742.772,0.155l0,12.918c0,5.167 -2.938,6.614 -9.813,6.614c-9.378,0 -10.377,-1.964 -10.377,-6.614l0,-12.918l6.251,0l0,12.814c0,2.196 1.499,2.222 4.126,2.222c2.655,0 3.563,-0.181 3.563,-2.453l0,-12.583l6.25,0Z" style="fill:#11477b;fill-rule:nonzero;"/><path d="M756.992,19.531l-6.253,0l0,-14.881l-6.001,0l0,-4.495l18.567,0l0,4.495l-6.313,0l0,14.881Z" style="fill:#11477b;fill-rule:nonzero;"/><path d="M771.553,7.932l10.002,0l0,3.591l-10.002,0l0,3.772l10.878,0l0,4.237l-17.128,0l0,-19.377l16.909,0l0,4.237l-10.659,0l0,3.54Z" style="fill:#11477b;fill-rule:nonzero;"/><path d="M254.138,39.974l0,1.816l-12.33,0l0,10.715l11.119,0l0,1.817l-11.119,0l0,13.841l-2.179,0l0,-28.189l14.509,0Z" style="fill:#889197;fill-rule:nonzero;"/><path d="M278.267,66.508c3.511,0 6.475,-1.199 8.89,-3.601c2.413,-2.401 3.622,-5.344 3.622,-8.828c0,-3.498 -1.209,-6.448 -3.622,-8.849c-2.415,-2.402 -5.379,-3.601 -8.89,-3.601c-3.524,0 -6.508,1.199 -8.949,3.601c-2.442,2.401 -3.662,5.351 -3.662,8.849c0,3.484 1.22,6.427 3.662,8.828c2.441,2.402 5.425,3.601 8.949,3.601m-0.08,-26.897c4.17,0 7.705,1.401 10.604,4.208c2.898,2.803 4.348,6.224 4.348,10.26c0,4.022 -1.45,7.436 -4.348,10.24c-2.899,2.806 -6.434,4.208 -10.604,4.208c-4.157,0 -7.678,-1.402 -10.564,-4.208c-2.886,-2.804 -4.329,-6.218 -4.329,-10.24c0,-4.036 1.443,-7.457 4.329,-10.26c2.886,-2.807 6.407,-4.208 10.564,-4.208" style="fill:#889197;fill-rule:nonzero;"/><path d="M325.964,39.974l2.18,0l0,15.377c0,4.21 -1.097,7.459 -3.289,9.746c-2.194,2.286 -5.033,3.43 -8.516,3.43c-3.471,0 -6.303,-1.129 -8.495,-3.391c-2.192,-2.259 -3.29,-5.353 -3.29,-9.282l0,-15.88l2.2,0l0,15.801c0,3.362 0.891,5.992 2.673,7.889c1.783,1.896 4.087,2.844 6.912,2.844c2.852,0 5.169,-0.957 6.951,-2.874c1.783,-1.917 2.674,-4.639 2.674,-8.162l0,-15.498Z" style="fill:#889197;fill-rule:nonzero;"/><path d="M366.096,39.974l0,28.189l-1.793,0l-21.434,-24.638l0,24.638l-2.178,0l0,-28.189l1.845,0l21.38,24.639l0,-24.639l2.18,0Z" style="fill:#889197;fill-rule:nonzero;"/><path d="M381.467,41.79l0,24.557l7.95,0c3.646,0 6.683,-1.12 9.111,-3.361c2.428,-2.238 3.641,-5.207 3.641,-8.907c0,-3.619 -1.196,-6.572 -3.591,-8.859c-2.394,-2.286 -5.495,-3.43 -9.301,-3.43l-7.81,0Zm-2.18,-1.816l9.868,0c4.991,0 8.8,1.31 11.431,3.935c2.632,2.622 3.945,6.013 3.945,10.17c0,4.075 -1.299,7.442 -3.904,10.1c-2.603,2.657 -6.3,3.984 -11.089,3.984l-10.251,0l0,-28.189Z" style="fill:#889197;fill-rule:nonzero;"/><path d="M431.497,56.601l-6.074,-13.278l-6.055,13.278l12.129,0Zm-5.457,-16.83l13.034,28.393l-2.286,0l-4.46,-9.747l-13.786,0l-4.443,9.747l-2.288,0l13.033,-28.393l1.196,0Z" style="fill:#889197;fill-rule:nonzero;"/><path d="M465.282,39.974l0,1.816l-10.574,0l0,26.373l-2.199,0l0,-26.373l-10.575,0l0,-1.816l23.348,0Z" style="fill:#889197;fill-rule:nonzero;"/><rect x="475.384" y="39.974" width="2.18" height="28.189" style="fill:#889197;"/><path d="M504.52,66.508c3.509,0 6.472,-1.199 8.886,-3.601c2.415,-2.401 3.624,-5.344 3.624,-8.828c0,-3.498 -1.209,-6.448 -3.624,-8.849c-2.414,-2.402 -5.377,-3.601 -8.886,-3.601c-3.526,0 -6.51,1.199 -8.95,3.601c-2.443,2.401 -3.663,5.351 -3.663,8.849c0,3.484 1.22,6.427 3.663,8.828c2.44,2.402 5.424,3.601 8.95,3.601m-0.082,-26.897c4.171,0 7.704,1.401 10.603,4.208c2.899,2.803 4.35,6.224 4.35,10.26c0,4.022 -1.451,7.436 -4.35,10.24c-2.899,2.806 -6.432,4.208 -10.603,4.208c-4.156,0 -7.678,-1.402 -10.564,-4.208c-2.884,-2.804 -4.329,-6.218 -4.329,-10.24c0,-4.036 1.445,-7.457 4.329,-10.26c2.886,-2.807 6.408,-4.208 10.564,-4.208" style="fill:#889197;fill-rule:nonzero;"/><path d="M556.798,39.974l0,28.189l-1.796,0l-21.432,-24.638l0,24.638l-2.179,0l0,-28.189l1.846,0l21.381,24.639l0,-24.639l2.18,0Z" style="fill:#889197;fill-rule:nonzero;"/><path d="M12.979,55.25l215.024,0" style="fill:none;stroke:#889197;stroke-width:2.58px;"/><path d="M566.36,55.25l215.024,0" style="fill:none;stroke:#889197;stroke-width:2.58px;"/></svg>